<svg xmlns="http://www.w3.org/2000/svg" viewBox="0 0 100 100">
  <!-- Ears -->
  <polygon points="20,38 14,8 40,28" fill="#E8883C"/>
  <polygon points="80,38 86,8 60,28" fill="#E8883C"/>
  <polygon points="23,36 19,14 38,30" fill="#FFD1B0"/>
  <polygon points="77,36 81,14 62,30" fill="#FFD1B0"/>
  <!-- Face -->
  <circle cx="50" cy="54" r="34" fill="#F5A04C"/>
  <!-- Eyes -->
  <ellipse cx="37" cy="48" rx="6" ry="6.5" fill="#A8E86C"/>
  <ellipse cx="63" cy="48" rx="6" ry="6.5" fill="#A8E86C"/>
  <ellipse cx="37" cy="48" rx="3" ry="5" fill="#1A1A1A"/>
  <ellipse cx="63" cy="48" rx="3" ry="5" fill="#1A1A1A"/>
  <!-- Nose -->
  <polygon points="50,56 47,60 53,60" fill="#FF8CA1"/>
  <!-- Mouth -->
  <path d="M47 62 Q50 66 53 62" fill="none" stroke="#2C1810" stroke-width="1.2" stroke-linecap="round"/>
  <!-- Whiskers -->
  <line x1="14" y1="56" x2="34" y2="60" stroke="#2C1810" stroke-width="1" stroke-linecap="round"/>
  <line x1="14" y1="62" x2="34" y2="62" stroke="#2C1810" stroke-width="1" stroke-linecap="round"/>
  <line x1="86" y1="56" x2="66" y2="60" stroke="#2C1810" stroke-width="1" stroke-linecap="round"/>
  <line x1="86" y1="62" x2="66" y2="62" stroke="#2C1810" stroke-width="1" stroke-linecap="round"/>
</svg>
