<svg xmlns="http://www.w3.org/2000/svg" viewBox="0 0 100 100">
  <!-- Ears -->
  <circle cx="22" cy="24" r="12" fill="#E8883C"/>
  <circle cx="78" cy="24" r="12" fill="#E8883C"/>
  <circle cx="22" cy="24" r="7" fill="#FFD1B0"/>
  <circle cx="78" cy="24" r="7" fill="#FFD1B0"/>
  <!-- Face -->
  <circle cx="50" cy="54" r="35" fill="#F5A04C"/>
  <!-- White patches -->
  <ellipse cx="50" cy="66" rx="20" ry="16" fill="#FFF5E6"/>
  <!-- Stripes -->
  <path d="M28 36 Q32 42 26 46" fill="none" stroke="#2C1810" stroke-width="2.5" stroke-linecap="round"/>
  <path d="M24 48 Q30 52 24 56" fill="none" stroke="#2C1810" stroke-width="2.5" stroke-linecap="round"/>
  <path d="M72 36 Q68 42 74 46" fill="none" stroke="#2C1810" stroke-width="2.5" stroke-linecap="round"/>
  <path d="M76 48 Q70 52 76 56" fill="none" stroke="#2C1810" stroke-width="2.5" stroke-linecap="round"/>
  <path d="M44 28 Q48 34 42 36" fill="none" stroke="#2C1810" stroke-width="2" stroke-linecap="round"/>
  <path d="M56 28 Q52 34 58 36" fill="none" stroke="#2C1810" stroke-width="2" stroke-linecap="round"/>
  <!-- Eyes -->
  <circle cx="38" cy="48" r="5.5" fill="#fff"/>
  <circle cx="62" cy="48" r="5.5" fill="#fff"/>
  <circle cx="39" cy="49" r="3.5" fill="#2C6B1A"/>
  <circle cx="63" cy="49" r="3.5" fill="#2C6B1A"/>
  <circle cx="40" cy="47.5" r="1.2" fill="#fff"/>
  <circle cx="64" cy="47.5" r="1.2" fill="#fff"/>
  <!-- Nose -->
  <ellipse cx="50" cy="58" rx="4.5" ry="3" fill="#FF8CA1"/>
  <!-- Mouth -->
  <path d="M46 62 Q50 67 54 62" fill="none" stroke="#2C1810" stroke-width="1.5" stroke-linecap="round"/>
</svg>
